<?xml version="1.0" encoding="UTF-8"?>
<svg width="95px" height="109px" viewBox="0 0 95 109" version="1.1" xmlns="http://www.w3.org/2000/svg" xmlns:xlink="http://www.w3.org/1999/xlink">
    <title>编组 2</title>
    <g id="页面-1" stroke="none" stroke-width="1" fill="none" fill-rule="evenodd">
        <g id="zipper" transform="translate(-525.000000, -342.000000)">
            <g id="编组-2" transform="translate(525.477739, 342.649122)">
                <path d="M3.94258487,11.5 L51.9425849,11.5 C56.3608629,11.5 59.9425849,15.081722 59.9425849,19.5 L59.9425849,44.5 C59.9425849,48.918278 56.3608629,52.5 51.9425849,52.5 L3.94258487,52.5 C-0.47569313,52.5 -4.05741513,48.918278 -4.05741513,44.5 L-4.05741513,19.5 C-4.05741513,15.081722 -0.47569313,11.5 3.94258487,11.5 Z" id="矩形" fill="#A0A0A0" transform="translate(27.942585, 32.000000) rotate(-270.000000) translate(-27.942585, -32.000000) "></path>
                <path d="M51.3063788,17.3508776 C61.3166802,17.3508776 69.9353913,24.4165306 71.898573,34.2324388 L79.498573,72.2324388 C81.7731239,83.6051936 74.3975724,94.6685208 63.0248176,96.9430718 C61.6687807,97.2142792 60.2892705,97.3508776 58.9063788,97.3508776 L35.2102197,97.3508776 C23.61224,97.3508776 14.2102197,87.9488574 14.2102197,76.3508776 C14.2102197,75.2226242 14.3011449,74.0962057 14.4821123,72.9825602 L20.6571123,34.9825602 C22.3088468,24.8180404 31.087371,17.3508776 41.3852197,17.3508776 L51.3063788,17.3508776 Z M47.0222607,46.3508776 C34.3197115,46.3508776 24.0222607,56.6483284 24.0222607,69.3508776 C24.0222607,82.0534269 34.3197115,92.3508776 47.0222607,92.3508776 C59.72481,92.3508776 70.0222607,82.0534269 70.0222607,69.3508776 C70.0222607,56.6483284 59.72481,46.3508776 47.0222607,46.3508776 Z" id="形状结合" fill="#DADADA" transform="translate(47.060324, 57.350878) rotate(-26.000000) translate(-47.060324, -57.350878) "></path>
            </g>
        </g>
    </g>
</svg>