<?xml version="1.0" encoding="UTF-8"?>
<svg width="569px" height="54px" viewBox="0 0 569 54" version="1.1" xmlns="http://www.w3.org/2000/svg" xmlns:xlink="http://www.w3.org/1999/xlink">
    <title>编组</title>
    <g id="页面-1" stroke="none" stroke-width="1" fill="none" fill-rule="evenodd">
        <g id="zipper" transform="translate(-100.000000, -178.000000)" fill="#F7F7F7">
            <g id="编组" transform="translate(100.000000, 178.000000)">
                <path d="M5.070202,0 L25.9717957,0 C28.1809347,-8.4990146e-16 29.9717957,1.790861 29.9717957,4 C29.9717957,4.30272294 29.9374306,4.60446746 29.8693605,4.89943803 L24.5712142,27.8580719 C24.1480302,29.6918691 22.5037551,30.9826381 20.6219197,30.9582994 L10.4814002,30.8271469 C8.65033182,30.8034648 7.06917727,29.539382 6.64297557,27.7584484 L1.18004771,4.93096702 C0.66588882,2.78249413 1.99076209,0.624004593 4.13923498,0.109845708 C4.44417937,0.0368683534 4.75664694,1.83395597e-15 5.070202,0 Z" id="矩形"></path>
                <path d="M27.070202,23 L47.9717957,23 C50.1809347,23 51.9717957,24.790861 51.9717957,27 C51.9717957,27.3027229 51.9374306,27.6044675 51.8693605,27.899438 L46.5712142,50.8580719 C46.1480302,52.6918691 44.5037551,53.9826381 42.6219197,53.9582994 L32.4814002,53.8271469 C30.6503318,53.8034648 29.0691773,52.539382 28.6429756,50.7584484 L23.1800477,27.930967 C22.6658888,25.7824941 23.9907621,23.6240046 26.139235,23.1098457 C26.4441794,23.0368684 26.7566469,23 27.070202,23 Z" id="矩形" transform="translate(37.500000, 38.500000) rotate(-180.000000) translate(-37.500000, -38.500000) "></path>
                <path d="M48.070202,0 L68.9717957,0 C71.1809347,-8.4990146e-16 72.9717957,1.790861 72.9717957,4 C72.9717957,4.30272294 72.9374306,4.60446746 72.8693605,4.89943803 L67.5712142,27.8580719 C67.1480302,29.6918691 65.5037551,30.9826381 63.6219197,30.9582994 L53.4814002,30.8271469 C51.6503318,30.8034648 50.0691773,29.539382 49.6429756,27.7584484 L44.1800477,4.93096702 C43.6658888,2.78249413 44.9907621,0.624004593 47.139235,0.109845708 C47.4441794,0.0368683534 47.7566469,1.83395597e-15 48.070202,0 Z" id="矩形"></path>
                <path d="M70.070202,23 L90.9717957,23 C93.1809347,23 94.9717957,24.790861 94.9717957,27 C94.9717957,27.3027229 94.9374306,27.6044675 94.8693605,27.899438 L89.5712142,50.8580719 C89.1480302,52.6918691 87.5037551,53.9826381 85.6219197,53.9582994 L75.4814002,53.8271469 C73.6503318,53.8034648 72.0691773,52.539382 71.6429756,50.7584484 L66.1800477,27.930967 C65.6658888,25.7824941 66.9907621,23.6240046 69.139235,23.1098457 C69.4441794,23.0368684 69.7566469,23 70.070202,23 Z" id="矩形" transform="translate(80.500000, 38.500000) rotate(-180.000000) translate(-80.500000, -38.500000) "></path>
                <path d="M91.070202,0 L111.971796,0 C114.180935,-8.4990146e-16 115.971796,1.790861 115.971796,4 C115.971796,4.30272294 115.937431,4.60446746 115.86936,4.89943803 L110.571214,27.8580719 C110.14803,29.6918691 108.503755,30.9826381 106.62192,30.9582994 L96.4814002,30.8271469 C94.6503318,30.8034648 93.0691773,29.539382 92.6429756,27.7584484 L87.1800477,4.93096702 C86.6658888,2.78249413 87.9907621,0.624004593 90.139235,0.109845708 C90.4441794,0.0368683534 90.7566469,1.83395597e-15 91.070202,0 Z" id="矩形"></path>
                <path d="M113.070202,23 L133.971796,23 C136.180935,23 137.971796,24.790861 137.971796,27 C137.971796,27.3027229 137.937431,27.6044675 137.86936,27.899438 L132.571214,50.8580719 C132.14803,52.6918691 130.503755,53.9826381 128.62192,53.9582994 L118.4814,53.8271469 C116.650332,53.8034648 115.069177,52.539382 114.642976,50.7584484 L109.180048,27.930967 C108.665889,25.7824941 109.990762,23.6240046 112.139235,23.1098457 C112.444179,23.0368684 112.756647,23 113.070202,23 Z" id="矩形" transform="translate(123.500000, 38.500000) rotate(-180.000000) translate(-123.500000, -38.500000) "></path>
                <path d="M134.070202,0 L154.971796,0 C157.180935,-8.4990146e-16 158.971796,1.790861 158.971796,4 C158.971796,4.30272294 158.937431,4.60446746 158.86936,4.89943803 L153.571214,27.8580719 C153.14803,29.6918691 151.503755,30.9826381 149.62192,30.9582994 L139.4814,30.8271469 C137.650332,30.8034648 136.069177,29.539382 135.642976,27.7584484 L130.180048,4.93096702 C129.665889,2.78249413 130.990762,0.624004593 133.139235,0.109845708 C133.444179,0.0368683534 133.756647,1.83395597e-15 134.070202,0 Z" id="矩形"></path>
                <path d="M156.070202,23 L176.971796,23 C179.180935,23 180.971796,24.790861 180.971796,27 C180.971796,27.3027229 180.937431,27.6044675 180.86936,27.899438 L175.571214,50.8580719 C175.14803,52.6918691 173.503755,53.9826381 171.62192,53.9582994 L161.4814,53.8271469 C159.650332,53.8034648 158.069177,52.539382 157.642976,50.7584484 L152.180048,27.930967 C151.665889,25.7824941 152.990762,23.6240046 155.139235,23.1098457 C155.444179,23.0368684 155.756647,23 156.070202,23 Z" id="矩形" transform="translate(166.500000, 38.500000) rotate(-180.000000) translate(-166.500000, -38.500000) "></path>
                <path d="M177.070202,0 L197.971796,0 C200.180935,-8.4990146e-16 201.971796,1.790861 201.971796,4 C201.971796,4.30272294 201.937431,4.60446746 201.86936,4.89943803 L196.571214,27.8580719 C196.14803,29.6918691 194.503755,30.9826381 192.62192,30.9582994 L182.4814,30.8271469 C180.650332,30.8034648 179.069177,29.539382 178.642976,27.7584484 L173.180048,4.93096702 C172.665889,2.78249413 173.990762,0.624004593 176.139235,0.109845708 C176.444179,0.0368683534 176.756647,1.83395597e-15 177.070202,0 Z" id="矩形"></path>
                <path d="M199.070202,23 L219.971796,23 C222.180935,23 223.971796,24.790861 223.971796,27 C223.971796,27.3027229 223.937431,27.6044675 223.86936,27.899438 L218.571214,50.8580719 C218.14803,52.6918691 216.503755,53.9826381 214.62192,53.9582994 L204.4814,53.8271469 C202.650332,53.8034648 201.069177,52.539382 200.642976,50.7584484 L195.180048,27.930967 C194.665889,25.7824941 195.990762,23.6240046 198.139235,23.1098457 C198.444179,23.0368684 198.756647,23 199.070202,23 Z" id="矩形" transform="translate(209.500000, 38.500000) rotate(-180.000000) translate(-209.500000, -38.500000) "></path>
                <path d="M220.070202,0 L240.971796,0 C243.180935,-8.4990146e-16 244.971796,1.790861 244.971796,4 C244.971796,4.30272294 244.937431,4.60446746 244.86936,4.89943803 L239.571214,27.8580719 C239.14803,29.6918691 237.503755,30.9826381 235.62192,30.9582994 L225.4814,30.8271469 C223.650332,30.8034648 222.069177,29.539382 221.642976,27.7584484 L216.180048,4.93096702 C215.665889,2.78249413 216.990762,0.624004593 219.139235,0.109845708 C219.444179,0.0368683534 219.756647,1.83395597e-15 220.070202,0 Z" id="矩形"></path>
                <path d="M242.070202,23 L262.971796,23 C265.180935,23 266.971796,24.790861 266.971796,27 C266.971796,27.3027229 266.937431,27.6044675 266.86936,27.899438 L261.571214,50.8580719 C261.14803,52.6918691 259.503755,53.9826381 257.62192,53.9582994 L247.4814,53.8271469 C245.650332,53.8034648 244.069177,52.539382 243.642976,50.7584484 L238.180048,27.930967 C237.665889,25.7824941 238.990762,23.6240046 241.139235,23.1098457 C241.444179,23.0368684 241.756647,23 242.070202,23 Z" id="矩形" transform="translate(252.500000, 38.500000) rotate(-180.000000) translate(-252.500000, -38.500000) "></path>
                <path d="M263.070202,0 L283.971796,0 C286.180935,-8.4990146e-16 287.971796,1.790861 287.971796,4 C287.971796,4.30272294 287.937431,4.60446746 287.86936,4.89943803 L282.571214,27.8580719 C282.14803,29.6918691 280.503755,30.9826381 278.62192,30.9582994 L268.4814,30.8271469 C266.650332,30.8034648 265.069177,29.539382 264.642976,27.7584484 L259.180048,4.93096702 C258.665889,2.78249413 259.990762,0.624004593 262.139235,0.109845708 C262.444179,0.0368683534 262.756647,1.83395597e-15 263.070202,0 Z" id="矩形"></path>
                <path d="M285.070202,23 L305.971796,23 C308.180935,23 309.971796,24.790861 309.971796,27 C309.971796,27.3027229 309.937431,27.6044675 309.86936,27.899438 L304.571214,50.8580719 C304.14803,52.6918691 302.503755,53.9826381 300.62192,53.9582994 L290.4814,53.8271469 C288.650332,53.8034648 287.069177,52.539382 286.642976,50.7584484 L281.180048,27.930967 C280.665889,25.7824941 281.990762,23.6240046 284.139235,23.1098457 C284.444179,23.0368684 284.756647,23 285.070202,23 Z" id="矩形" transform="translate(295.500000, 38.500000) rotate(-180.000000) translate(-295.500000, -38.500000) "></path>
                <path d="M306.070202,0 L326.971796,0 C329.180935,-8.4990146e-16 330.971796,1.790861 330.971796,4 C330.971796,4.30272294 330.937431,4.60446746 330.86936,4.89943803 L325.571214,27.8580719 C325.14803,29.6918691 323.503755,30.9826381 321.62192,30.9582994 L311.4814,30.8271469 C309.650332,30.8034648 308.069177,29.539382 307.642976,27.7584484 L302.180048,4.93096702 C301.665889,2.78249413 302.990762,0.624004593 305.139235,0.109845708 C305.444179,0.0368683534 305.756647,1.83395597e-15 306.070202,0 Z" id="矩形"></path>
                <path d="M328.070202,23 L348.971796,23 C351.180935,23 352.971796,24.790861 352.971796,27 C352.971796,27.3027229 352.937431,27.6044675 352.86936,27.899438 L347.571214,50.8580719 C347.14803,52.6918691 345.503755,53.9826381 343.62192,53.9582994 L333.4814,53.8271469 C331.650332,53.8034648 330.069177,52.539382 329.642976,50.7584484 L324.180048,27.930967 C323.665889,25.7824941 324.990762,23.6240046 327.139235,23.1098457 C327.444179,23.0368684 327.756647,23 328.070202,23 Z" id="矩形" transform="translate(338.500000, 38.500000) rotate(-180.000000) translate(-338.500000, -38.500000) "></path>
                <path d="M349.070202,0 L369.971796,0 C372.180935,-8.4990146e-16 373.971796,1.790861 373.971796,4 C373.971796,4.30272294 373.937431,4.60446746 373.86936,4.89943803 L368.571214,27.8580719 C368.14803,29.6918691 366.503755,30.9826381 364.62192,30.9582994 L354.4814,30.8271469 C352.650332,30.8034648 351.069177,29.539382 350.642976,27.7584484 L345.180048,4.93096702 C344.665889,2.78249413 345.990762,0.624004593 348.139235,0.109845708 C348.444179,0.0368683534 348.756647,1.83395597e-15 349.070202,0 Z" id="矩形"></path>
                <path d="M371.070202,23 L391.971796,23 C394.180935,23 395.971796,24.790861 395.971796,27 C395.971796,27.3027229 395.937431,27.6044675 395.86936,27.899438 L390.571214,50.8580719 C390.14803,52.6918691 388.503755,53.9826381 386.62192,53.9582994 L376.4814,53.8271469 C374.650332,53.8034648 373.069177,52.539382 372.642976,50.7584484 L367.180048,27.930967 C366.665889,25.7824941 367.990762,23.6240046 370.139235,23.1098457 C370.444179,23.0368684 370.756647,23 371.070202,23 Z" id="矩形" transform="translate(381.500000, 38.500000) rotate(-180.000000) translate(-381.500000, -38.500000) "></path>
                <path d="M392.070202,0 L412.971796,0 C415.180935,-8.4990146e-16 416.971796,1.790861 416.971796,4 C416.971796,4.30272294 416.937431,4.60446746 416.86936,4.89943803 L411.571214,27.8580719 C411.14803,29.6918691 409.503755,30.9826381 407.62192,30.9582994 L397.4814,30.8271469 C395.650332,30.8034648 394.069177,29.539382 393.642976,27.7584484 L388.180048,4.93096702 C387.665889,2.78249413 388.990762,0.624004593 391.139235,0.109845708 C391.444179,0.0368683534 391.756647,1.83395597e-15 392.070202,0 Z" id="矩形"></path>
                <path d="M414.070202,23 L434.971796,23 C437.180935,23 438.971796,24.790861 438.971796,27 C438.971796,27.3027229 438.937431,27.6044675 438.86936,27.899438 L433.571214,50.8580719 C433.14803,52.6918691 431.503755,53.9826381 429.62192,53.9582994 L419.4814,53.8271469 C417.650332,53.8034648 416.069177,52.539382 415.642976,50.7584484 L410.180048,27.930967 C409.665889,25.7824941 410.990762,23.6240046 413.139235,23.1098457 C413.444179,23.0368684 413.756647,23 414.070202,23 Z" id="矩形" transform="translate(424.500000, 38.500000) rotate(-180.000000) translate(-424.500000, -38.500000) "></path>
                <path d="M435.070202,0 L455.971796,0 C458.180935,-8.4990146e-16 459.971796,1.790861 459.971796,4 C459.971796,4.30272294 459.937431,4.60446746 459.86936,4.89943803 L454.571214,27.8580719 C454.14803,29.6918691 452.503755,30.9826381 450.62192,30.9582994 L440.4814,30.8271469 C438.650332,30.8034648 437.069177,29.539382 436.642976,27.7584484 L431.180048,4.93096702 C430.665889,2.78249413 431.990762,0.624004593 434.139235,0.109845708 C434.444179,0.0368683534 434.756647,1.83395597e-15 435.070202,0 Z" id="矩形"></path>
                <path d="M457.070202,23 L477.971796,23 C480.180935,23 481.971796,24.790861 481.971796,27 C481.971796,27.3027229 481.937431,27.6044675 481.86936,27.899438 L476.571214,50.8580719 C476.14803,52.6918691 474.503755,53.9826381 472.62192,53.9582994 L462.4814,53.8271469 C460.650332,53.8034648 459.069177,52.539382 458.642976,50.7584484 L453.180048,27.930967 C452.665889,25.7824941 453.990762,23.6240046 456.139235,23.1098457 C456.444179,23.0368684 456.756647,23 457.070202,23 Z" id="矩形" transform="translate(467.500000, 38.500000) rotate(-180.000000) translate(-467.500000, -38.500000) "></path>
                <path d="M478.070202,0 L498.971796,0 C501.180935,-8.4990146e-16 502.971796,1.790861 502.971796,4 C502.971796,4.30272294 502.937431,4.60446746 502.86936,4.89943803 L497.571214,27.8580719 C497.14803,29.6918691 495.503755,30.9826381 493.62192,30.9582994 L483.4814,30.8271469 C481.650332,30.8034648 480.069177,29.539382 479.642976,27.7584484 L474.180048,4.93096702 C473.665889,2.78249413 474.990762,0.624004593 477.139235,0.109845708 C477.444179,0.0368683534 477.756647,1.83395597e-15 478.070202,0 Z" id="矩形"></path>
                <path d="M500.070202,23 L520.971796,23 C523.180935,23 524.971796,24.790861 524.971796,27 C524.971796,27.3027229 524.937431,27.6044675 524.86936,27.899438 L519.571214,50.8580719 C519.14803,52.6918691 517.503755,53.9826381 515.62192,53.9582994 L505.4814,53.8271469 C503.650332,53.8034648 502.069177,52.539382 501.642976,50.7584484 L496.180048,27.930967 C495.665889,25.7824941 496.990762,23.6240046 499.139235,23.1098457 C499.444179,23.0368684 499.756647,23 500.070202,23 Z" id="矩形" transform="translate(510.500000, 38.500000) rotate(-180.000000) translate(-510.500000, -38.500000) "></path>
                <path d="M521.070202,0 L541.971796,0 C544.180935,-8.4990146e-16 545.971796,1.790861 545.971796,4 C545.971796,4.30272294 545.937431,4.60446746 545.86936,4.89943803 L540.571214,27.8580719 C540.14803,29.6918691 538.503755,30.9826381 536.62192,30.9582994 L526.4814,30.8271469 C524.650332,30.8034648 523.069177,29.539382 522.642976,27.7584484 L517.180048,4.93096702 C516.665889,2.78249413 517.990762,0.624004593 520.139235,0.109845708 C520.444179,0.0368683534 520.756647,1.83395597e-15 521.070202,0 Z" id="矩形"></path>
                <path d="M543.070202,23 L563.971796,23 C566.180935,23 567.971796,24.790861 567.971796,27 C567.971796,27.3027229 567.937431,27.6044675 567.86936,27.899438 L562.571214,50.8580719 C562.14803,52.6918691 560.503755,53.9826381 558.62192,53.9582994 L548.4814,53.8271469 C546.650332,53.8034648 545.069177,52.539382 544.642976,50.7584484 L539.180048,27.930967 C538.665889,25.7824941 539.990762,23.6240046 542.139235,23.1098457 C542.444179,23.0368684 542.756647,23 543.070202,23 Z" id="矩形" transform="translate(553.500000, 38.500000) rotate(-180.000000) translate(-553.500000, -38.500000) "></path>
            </g>
        </g>
    </g>
</svg>